<?xml version="1.0" encoding="utf-8"?>
<!-- Generator: Adobe Illustrator 22.1.0, SVG Export Plug-In . SVG Version: 6.00 Build 0)  -->
<svg version="1.1" xmlns="http://www.w3.org/2000/svg" xmlns:xlink="http://www.w3.org/1999/xlink" x="0px" y="0px"
	 viewBox="0 0 841.9 595.3" style="enable-background:new 0 0 841.9 595.3;" xml:space="preserve">
<style type="text/css">
	.st0{display:none;}
	.st1{display:inline;}
	.st2{fill:#CB612E;}
	.st3{fill:#6DAEA5;}
	.st4{fill:#FFFFFF;}
</style>
<g id="背景色" class="st0">
</g>
<g id="图层_1">
	<g>
		<path d="M321.6,253c4.1,0,7.9,1.2,11.2,4.7c1.7,1.9,5-0.7,3.2-2.8c-4-4.2-8.9-6.1-14.5-6.1c-8.3,0-20.3,5.6-20.3,19.7
			c0,12.1,9.4,20.8,19.9,20.8c5.9,0,12.4-2.8,15.7-7.7c1.6-2.3-2.2-4.5-3.5-2.5c-2.9,3.7-7.3,5.9-12.1,5.9
			c-8.5,0-15.6-7.2-15.6-16.5C305.6,256.4,315,253,321.6,253z"/>
		<path d="M381.9,268.4c0-13.9-12-19.6-20.3-19.6c-8.2,0-19.5,5.7-19.5,19.6c0,13.1,8.9,20.9,20,20.9
			C372.6,289.3,381.9,281.2,381.9,268.4z M346.7,268.6c0-11.6,8.7-15.6,15-15.6c6.4,0,15.6,4.3,15.6,15.6c0,10.4-6.9,16.6-15.2,16.6
			C353.4,285.1,346.7,278.7,346.7,268.6z"/>
		<path d="M412,279l12.6-19.7v27.2c0,1.5,1.1,2.2,2.3,2.2c1.1,0,2.2-0.7,2.2-2.2v-34.6c0-1.5-1-2.4-2.1-2.4c-0.8,0-1.6,0.4-2.2,1.3
			l-14.9,23.5l-15.1-23.4c-0.5-0.9-1.3-1.4-2-1.4c-1.1,0-2.2,0.9-2.2,2.5v34.6c0,1.5,1.1,2.2,2.3,2.2c1.1,0,2.2-0.7,2.2-2.2v-27.1
			l12.6,19.6C408.9,280.7,410.9,280.7,412,279z"/>
		<path d="M442.3,249.4c-1.2,0-2.3,0.9-2.3,2.2v35.1c0,1.4,1.1,2,2.2,2c1.1,0,2.2-0.7,2.2-2.1v-9.5h11.1c10.8,0,15.9-6.1,15.9-13.5
			c0-7.1-5-14.2-15.7-14.2H442.3z M467.1,263.6c0,4.7-3.3,9.5-11.5,9.5h-11.1v-19.7h11.3C463,253.4,467.1,258.5,467.1,263.6z"/>
		<path d="M515.9,251c0-1.5-1.2-2.2-2.3-2.2c-1.2,0-2.3,0.7-2.3,2.3v20.4c0,8.9-6.8,13.4-13.6,13.4s-13.6-4.5-13.6-13.4v-20.6
			c0-1.4-1.2-2.1-2.3-2.1c-1.1,0-2.3,0.7-2.3,2v20.6c0,11.9,9.2,17.8,18.2,17.8c9,0,18.2-6,18.2-17.8V251z"/>
		<path d="M523.3,253.7H537v32.7c0,1.5,1.2,2.3,2.2,2.3c1,0,2.3-0.7,2.3-2.3l-0.1-32.7h13.8c3,0,3-4.3,0-4.3h-32
			C520.4,249.4,520.4,253.7,523.3,253.7z"/>
		<path d="M593.4,285.7L575.2,250c-0.4-0.8-1.2-1.2-2-1.2c-0.8,0-1.7,0.4-2,1.2L553,285.8c-0.7,1.6,0.8,2.9,2.2,2.9
			c0.7,0,1.4-0.3,1.9-1.1l4.6-8.8h23.2l4.4,8.8c0.4,0.9,1.2,1.2,2,1.2C592.9,288.7,594.3,287.5,593.4,285.7z M563.5,274.9l9.8-19.5
			l9.7,19.5H563.5z"/>
		<path d="M623.8,249.4h-32c-2.9,0-2.9,4.3,0,4.3h13.7v32.7c0,1.5,1.2,2.3,2.2,2.3s2.3-0.7,2.3-2.3l-0.1-32.7h13.8
			C626.8,253.7,626.8,249.4,623.8,249.4z"/>
		<path d="M633.2,249.4c-1.1,0-2.3,0.7-2.3,2.3v34.8c0,1.5,1.1,2.2,2.3,2.2s2.3-0.7,2.3-2.2v-34.8
			C635.6,250.1,634.4,249.4,633.2,249.4z"/>
		<path d="M662.1,248.8c-8.2,0-19.5,5.7-19.5,19.6c0,13.1,8.9,20.9,20,20.9c10.5,0,19.8-8.1,19.8-20.9
			C682.3,254.5,670.4,248.8,662.1,248.8z M662.6,285.1c-8.7,0-15.4-6.4-15.4-16.6c0-11.6,8.7-15.6,15-15.6c6.4,0,15.6,4.3,15.6,15.6
			C677.8,278.9,670.9,285.1,662.6,285.1z"/>
		<path d="M721.3,249.4c-1.2,0-2.4,0.7-2.4,2v21.4l0.6,9.3l-23.8-31.3c-0.6-0.9-1.6-1.4-2.5-1.4c-1.3,0-2.5,0.9-2.5,2.7v34.3
			c0,1.5,1.2,2.3,2.3,2.3c1.2,0,2.3-0.7,2.3-2.3v-21.2l-0.5-8.5l23.1,30.6c0.6,0.9,1.7,1.4,2.7,1.4c1.4,0,2.8-0.9,2.8-2.7v-34.6
			C723.5,250,722.4,249.4,721.3,249.4z"/>
		<path d="M751.8,250c-0.4-0.8-1.2-1.2-2-1.2c-0.8,0-1.7,0.4-2,1.2l-18.2,35.8c-0.7,1.6,0.8,2.9,2.2,2.9c0.7,0,1.4-0.3,1.9-1.1
			l4.6-8.8h23.2l4.4,8.8c0.4,0.9,1.2,1.2,2,1.2c1.5,0,3-1.2,2.1-3L751.8,250z M740,274.9l9.8-19.5l9.7,19.5H740z"/>
		<path d="M804.4,284.6h-23.1v-33c0-1.5-1.1-2.2-2.3-2.2c-1.1,0-2.3,0.7-2.3,2.2v34.8c0,1.5,0.7,2.3,2.3,2.3h25.3
			C807.6,288.7,807.6,284.6,804.4,284.6z"/>
		<path d="M320.4,299.8c-8.2,0-19.5,5.7-19.5,19.6c0,13.1,8.9,20.9,20,20.9c10.5,0,19.8-8.1,19.8-20.9
			C340.7,305.5,328.7,299.8,320.4,299.8z M320.9,336.1c-8.7,0-15.4-6.4-15.4-16.6c0-11.6,8.7-15.6,15-15.6c6.4,0,15.6,4.3,15.6,15.6
			C336.1,330,329.2,336.1,320.9,336.1z"/>
		<path d="M385.8,300.4c-0.8,0-1.6,0.4-2.2,1.3l-14.9,23.5l-15.1-23.4c-0.5-0.9-1.3-1.4-2-1.4c-1.1,0-2.2,0.9-2.2,2.5v34.6
			c0,1.5,1.1,2.2,2.3,2.2c1.1,0,2.2-0.7,2.2-2.2v-27.1l12.6,19.6c1.1,1.7,3.2,1.7,4.3,0l12.6-19.7v27.2c0,1.5,1.1,2.2,2.3,2.2
			c1.1,0,2.2-0.7,2.2-2.2v-34.6C387.9,301.3,386.9,300.4,385.8,300.4z"/>
		<path d="M400.7,300.4c-1.1,0-2.3,0.7-2.3,2.3v34.8c0,1.5,1.1,2.2,2.3,2.2c1.2,0,2.3-0.7,2.3-2.2v-34.8
			C403.1,301.2,401.9,300.4,400.7,300.4z"/>
		<path d="M442.5,330.2c-2.9,3.7-7.3,5.9-12.1,5.9c-8.5,0-15.6-7.2-15.6-16.5c0-12.2,9.4-15.6,16-15.6c4.1,0,7.9,1.2,11.2,4.7
			c1.7,1.9,5-0.7,3.2-2.8c-4-4.2-8.9-6.1-14.5-6.1c-8.3,0-20.3,5.6-20.3,19.7c0,12.1,9.4,20.8,19.9,20.8c5.9,0,12.4-2.8,15.7-7.7
			C447.6,330.4,443.8,328.2,442.5,330.2z"/>
		<path d="M470.8,317.9c-7.2-0.6-13.3-1.1-13.3-6.5c0-5.6,8-7,12.2-7c4.4,0,11.1,0.5,12.9,5.2c0.9,2.1,5.1,1,4.2-1.5
			c-2.6-7-10.7-8.3-17.2-8.3c-7.5,0-16.9,3.3-16.9,11.5c0,9.2,9.1,10,17.7,10.7c6.8,0.6,13.3,1,13.3,6.4c0,6.2-8.2,7.5-13.4,7.5
			c-4.9,0-11.8-0.8-13.4-5.9c-0.5-2.5-5.3-1.6-4.6,1.1c2,7.4,11.7,9.3,18,9.3c7.6,0,18.2-2.6,18.2-12
			C488.4,319,479.3,318.6,470.8,317.9z"/>
		<path d="M540,335.6h-23.1v-33c0-1.5-1.1-2.2-2.3-2.2c-1.1,0-2.3,0.7-2.3,2.2v34.8c0,1.5,0.7,2.3,2.3,2.3H540
			C543.2,339.7,543.2,335.6,540,335.6z"/>
		<path d="M568.6,301c-0.4-0.8-1.2-1.2-2-1.2c-0.8,0-1.7,0.4-2,1.2l-18.2,35.8c-0.7,1.6,0.8,2.9,2.2,2.9c0.7,0,1.4-0.3,1.9-1.1
			l4.6-8.8h23.2l4.4,8.8c0.4,0.9,1.2,1.2,2,1.2c1.5,0,3-1.2,2.1-3L568.6,301z M556.9,325.9l9.8-19.5l9.7,19.5H556.9z"/>
		<path d="M620.4,318.5c3.2-1.3,4.8-4.1,4.8-7.3c0-8.8-8.9-10.7-14.6-10.7h-14.6c-1.2,0-2.3,1-2.3,2.2v34.8c0,1.2,1,2.2,2.3,2.2H612
			c7.8,0,16.1-2.5,16.1-11.7C628,323,624.9,319.9,620.4,318.5z M598.1,304.5h12.4c3.8,0,10.1,1.4,10.1,6.7c0,4.5-4.6,5.9-9.9,5.9
			h-12.6V304.5z M612,335.7h-13.8v-14.6h15.7c5.4,0,9.6,2.1,9.6,7C623.4,334.3,617.4,335.7,612,335.7z"/>
		<path d="M321,181.9h14.5v29.6c0,0.9,0.2,1.5,0.5,1.9c0.4,0.4,1,0.6,1.9,0.6c1.6,0,2.4-0.8,2.4-2.5v-29.6h14.5
			c0.8,0,1.4-0.2,1.8-0.5c0.4-0.3,0.6-1,0.6-1.9c0-0.9-0.2-1.5-0.6-1.8c-0.4-0.3-1-0.5-1.8-0.5h-14.5v-17.5c0-0.9-0.2-1.6-0.6-1.9
			c-0.4-0.4-1-0.5-1.8-0.5c-0.9,0-1.5,0.2-1.9,0.5c-0.4,0.4-0.5,1-0.5,1.9v17.5H321c-0.8,0-1.5,0.2-1.8,0.5c-0.4,0.4-0.6,1-0.6,1.8
			C318.6,181.1,319.4,181.9,321,181.9z"/>
		<path d="M303.3,180.6l5.6-0.6c0.8-0.1,1.1,0.2,1,1l-1.6,25.2c-0.1,1.1,0,2.1,0.3,2.8c0.3,0.8,0.7,1.3,1.3,1.7
			c0.6,0.4,1.2,0.5,1.9,0.4c0.7-0.1,1.5-0.4,2.3-1c1.3-0.9,2.6-2,3.9-3.2c1.3-1.2,2.5-2.4,3.5-3.5c1.5-1.6,1.6-2.9,0.2-4
			c-0.6-0.4-1.1-0.6-1.7-0.5c-0.6,0.1-1.2,0.6-1.8,1.2c-0.3,0.3-0.6,0.6-1,1c-0.4,0.4-0.8,0.8-1.2,1.3c-0.4,0.4-0.9,0.9-1.3,1.3
			c-0.4,0.4-0.8,0.7-1.2,1c-0.4,0.4-0.6,0.3-0.6-0.4l1.5-23.6c0.1-2.2-0.3-3.7-1.2-4.5c-0.9-0.8-2.3-1.1-4.3-0.9l-6.3,0.6
			c-1,0.1-1.7,0.3-2.1,0.7c-0.4,0.4-0.5,1-0.5,1.7c0.1,0.9,0.3,1.5,0.7,1.8C301.4,180.6,302.1,180.7,303.3,180.6z"/>
		<path d="M305.9,162.7c1.5,1.4,2.9,2.7,4.1,4c1.2,1.3,2.4,2.5,3.5,3.7c1.4,1.5,2.6,1.7,3.6,0.7c0.7-0.6,1-1.3,1-1.8
			c0-0.6-0.4-1.3-1.2-2.1c-1-1.1-2-2.2-3.2-3.4c-1.2-1.2-2.6-2.6-4.4-4.1c-0.8-0.7-1.5-1.1-2.1-1.1s-1.1,0.2-1.5,0.6
			C304.5,160.4,304.6,161.6,305.9,162.7z"/>
		<path d="M392.4,169.6c0.4,0.4,1,0.6,1.7,0.6c0.7,0,1.4-0.4,2.1-1.4c1-1.2,1.8-2.4,2.5-3.6h5.9c0.2,0.5,0.3,1,0.4,1.5
			c0.1,0.4,0.2,0.8,0.3,1.1c0.3,1,0.7,1.7,1.1,2c0.4,0.3,1,0.3,1.9,0.1c0.7-0.2,1.2-0.5,1.4-0.9c0.2-0.4,0.2-1.1-0.1-2.1
			c-0.1-0.2-0.2-0.4-0.2-0.7s-0.2-0.6-0.2-0.9h9.5c1.5,0,2.2-0.7,2.2-2.1c0-1.4-0.7-2.1-2.2-2.1H401c0.1-0.2,0.2-0.3,0.2-0.5
			c0.1-0.1,0.1-0.3,0.2-0.5c0.4-0.9,0.6-1.7,0.4-2.4c-0.2-0.7-0.6-1.2-1.5-1.4c-0.8-0.2-1.4-0.2-1.9,0.1c-0.5,0.3-0.9,1-1.4,2.1
			c-0.5,1.4-1.1,2.7-1.8,3.9c-0.7,1.2-1.5,2.4-2.3,3.3C391.6,167.6,391.4,168.8,392.4,169.6z"/>
		<path d="M365.7,203.6h12.7c-0.6,1.7-1.6,3-2.9,4c-1.3,1-3.2,2-5.5,3c-0.8,0.4-1.3,0.8-1.6,1.4c-0.2,0.6-0.3,1.1-0.1,1.8
			c0.2,0.7,0.6,1.1,1.1,1.2c0.5,0.1,1.4,0,2.5-0.5c1.5-0.6,2.8-1.2,4-1.9c1.2-0.7,2.2-1.5,3.1-2.4c0.9-0.9,1.6-1.9,2.2-2.9
			c0.6-1.1,1.1-2.3,1.5-3.7h20v9.2c0,0.8,0.2,1.4,0.6,1.8c0.4,0.4,0.9,0.5,1.6,0.5c1.4,0,2.1-0.8,2.1-2.3v-9.2H419
			c1.6,0,2.4-0.7,2.4-2.1c0-1.4-0.8-2.1-2.4-2.1h-11.9v-2.8c0-0.3-0.1-0.6-0.2-0.9h1c1.1,0,2-0.1,2.7-0.3s1.2-0.5,1.6-0.9
			c0.4-0.4,0.6-1,0.8-1.7c0.1-0.7,0.2-1.6,0.2-2.7v-13.5c0-1.1-0.1-2-0.2-2.7c-0.1-0.7-0.4-1.3-0.8-1.7c-0.4-0.4-0.9-0.7-1.6-0.9
			c-0.7-0.2-1.6-0.3-2.7-0.3h-31.4c-1.1,0-2,0.1-2.6,0.2c-0.7,0.1-1.2,0.4-1.6,0.8c-0.4,0.4-0.7,1-0.8,1.7c-0.1,0.7-0.2,1.7-0.2,2.8
			V190c0,1.2,0.1,2.1,0.2,2.9c0.2,0.7,0.4,1.3,0.8,1.7c0.4,0.4,0.9,0.7,1.6,0.8c0.7,0.1,1.6,0.2,2.6,0.2h3.1
			c-0.1,0.4-0.2,0.8-0.2,1.3c0,0.8-0.1,1.6-0.2,2.4h-13.6c-1.6,0-2.4,0.7-2.4,2.1C363.2,202.8,364,203.6,365.7,203.6z M402.8,196.5
			v2.8h-19.1c0.1-0.3,0.1-0.6,0.2-1c0-0.3,0.1-0.6,0.1-1c0-0.3,0-0.6,0-0.9c0-0.3,0-0.6-0.1-0.8h19.1
			C402.8,196,402.8,196.3,402.8,196.5z M375.4,176.3c0-0.8,0.3-1.1,0.8-1.1H408c0.6,0,0.9,0.4,0.9,1.1v1.6h-33.5V176.3z
			 M375.4,182.1h33.5v2.5h-33.5V182.1z M376.2,191.5c-0.5,0-0.8-0.4-0.8-1.2v-1.5h33.5v1.5c0,0.8-0.3,1.2-0.9,1.2H376.2z"/>
		<path d="M366.5,171.5c0.6,0,1.3-0.4,2.1-1.2c1.6-1.5,3.1-3.3,4.5-5.3h5.9c0.2,0.6,0.3,1.1,0.5,1.6c0.1,0.5,0.3,0.9,0.3,1.3
			c0.3,1.1,0.7,1.8,1.2,2.1c0.5,0.3,1.1,0.4,1.7,0.2c0.8-0.2,1.3-0.6,1.5-1.1c0.2-0.5,0.1-1.3-0.2-2.3c-0.1-0.2-0.2-0.5-0.2-0.8
			c-0.1-0.3-0.2-0.6-0.3-0.9h7.7c1.4,0,2.1-0.7,2.1-2.1c0-0.7-0.2-1.2-0.5-1.5c-0.3-0.3-0.9-0.5-1.7-0.5h-15.7
			c0.2-0.3,0.3-0.6,0.4-0.8c0.8-2.1,0.6-3.3-0.7-3.7c-0.7-0.2-1.3-0.2-1.8,0c-0.5,0.3-1.1,1-1.5,2.1c-0.7,1.7-1.5,3.2-2.5,4.7
			c-1,1.5-2.1,2.8-3.4,3.9c-0.9,0.8-1.4,1.5-1.5,2.1c-0.1,0.6,0.1,1.1,0.5,1.6C365.4,171.3,365.9,171.5,366.5,171.5z"/>
		<path d="M446.1,208.7c-0.4,0.5-0.5,1-0.5,1.7c0,0.7,0.2,1.2,0.5,1.7c0.4,0.4,1,0.6,1.8,0.6h34.5c0.8,0,1.5-0.2,1.8-0.6
			c0.4-0.4,0.5-1,0.5-1.7c0-0.7-0.2-1.3-0.5-1.7c-0.4-0.5-1-0.7-1.8-0.7h-3.4V165c0-1.1-0.1-2-0.2-2.7c-0.2-0.7-0.4-1.2-0.8-1.6
			c-0.4-0.4-0.9-0.6-1.5-0.8c-0.6-0.1-1.4-0.2-2.3-0.2h-17.9c-0.9,0-1.7,0.1-2.3,0.2s-1.1,0.4-1.5,0.8c-0.4,0.4-0.6,0.9-0.8,1.6
			c-0.2,0.7-0.2,1.6-0.2,2.7V208H448C447.1,208,446.5,208.3,446.1,208.7z M456.2,165.3c0-0.4,0-0.7,0.1-0.9c0.1-0.1,0.3-0.2,0.6-0.2
			h16.3c0.4,0,0.7,0.1,0.8,0.2c0.1,0.1,0.2,0.4,0.2,0.8v11.1h-18.1V165.3z M456.2,180.8h18.1v11.6h-18.1V180.8z M456.2,196.8h18.1
			V208h-18.1V196.8z"/>
		<path d="M428.1,210.8c0.6,0.2,1.6,0.1,2.8-0.2c2.8-0.7,5.7-1.6,8.6-2.6c2.9-1,5.8-2.1,8.6-3.4c0.9-0.4,1.4-0.8,1.7-1.2
			c0.2-0.4,0.2-1,0-1.7c-0.3-0.8-0.8-1.3-1.4-1.5c-0.6-0.2-1.5,0-2.7,0.5c-2.7,1.2-5.4,2.2-8.1,3.1c-2.7,0.9-5.5,1.7-8.4,2.4
			c-1,0.2-1.7,0.6-2,1c-0.3,0.4-0.4,1-0.2,1.8C427.1,210.1,427.5,210.6,428.1,210.8z"/>
		<path d="M431.4,180.5l6.1-0.2c-2.4,3-5,6-7.9,9c-0.7,0.7-1.2,1.5-1.5,2.3c-0.3,0.8-0.3,1.6-0.1,2.3c0.2,0.7,0.7,1.2,1.5,1.6
			c0.7,0.4,1.8,0.5,3.1,0.4c1.9-0.2,4.1-0.5,6.4-0.9c2.4-0.4,4.9-1,7.5-1.8c1-0.3,1.7-0.7,2-1.1c0.3-0.4,0.4-1,0.2-1.7
			c-0.4-1.7-1.6-2.2-3.7-1.5c-1.4,0.4-3,0.9-4.8,1.3c-1.8,0.4-3.5,0.7-5.1,0.9c-0.6,0.1-0.9,0.1-1,0c-0.1-0.1,0-0.3,0.3-0.6
			c2.7-2.9,5.1-5.9,7.4-9c2.3-3.1,4.7-6.6,7.1-10.6c0.5-0.8,0.8-1.5,0.7-2.2c0-0.7-0.5-1.2-1.3-1.5c-0.8-0.3-1.5-0.3-2,0
			c-0.5,0.3-1,1-1.6,2c-1.2,2.2-2.5,4.3-3.9,6.2l-6.4,0.3c-0.6,0-0.9,0-1-0.1c-0.1-0.1-0.1-0.3,0.2-0.7c0.6-0.9,1.3-1.9,2.1-3.1
			c0.7-1.1,1.5-2.3,2.2-3.6c0.7-1.2,1.5-2.5,2.2-3.8c0.7-1.3,1.4-2.5,1.9-3.6c0.5-1,0.8-1.9,0.7-2.4c-0.1-0.6-0.5-1-1.2-1.4
			c-0.7-0.3-1.4-0.4-1.9-0.1c-0.5,0.2-1.1,0.9-1.6,2c-1.4,2.7-3,5.5-4.7,8.3c-1.8,2.9-3.4,5.4-5,7.7c-1.2,1.7-1.5,3.1-1,4.1
			C428.1,180.1,429.4,180.6,431.4,180.5z"/>
		<path d="M494.8,186.4c0.7,0,1.3-0.2,1.8-0.5c0.4-0.3,0.7-0.9,0.7-1.7v-7.8c0-0.5,0.1-0.9,0.4-1.2c0.2-0.3,0.6-0.5,1-0.5h41.3
			c1.4,0,2,0.3,1.9,1c-0.1,0.6-0.3,1.3-0.6,2.1c-0.3,0.9-0.7,1.8-1.1,2.8c-0.4,1-0.7,1.8-0.6,2.4c0,0.5,0.4,1,1.1,1.3
			c0.8,0.5,1.6,0.6,2.3,0.3c0.7-0.3,1.3-1,1.8-2.1c0.7-1.7,1.2-3.1,1.6-4.4c0.3-1.2,0.5-2.3,0.5-3.2c0-1.7-0.5-3-1.5-3.7
			c-1-0.7-2.4-1.1-4.2-1.1h-5.4c1-1.4,2-2.8,2.8-4.2c0.8-1.4,1.7-3,2.6-4.7c0.6-1.2,0.8-2,0.7-2.6c-0.1-0.6-0.6-1.1-1.6-1.4
			c-1.4-0.6-2.6,0.2-3.6,2.4c-0.9,1.8-1.9,3.5-2.9,5.1c-1,1.6-2.3,3.5-4,5.5h-31.4c-3.7,0-5.5,1.9-5.5,5.7v8.2
			c0,0.9,0.2,1.5,0.6,1.8C493.5,186.2,494,186.4,494.8,186.4z"/>
		<path d="M498,162.3c0.9,1,1.7,2,2.4,3c0.7,0.9,1.4,1.9,2,2.8c0.6,1,1.3,1.5,1.8,1.7c0.6,0.2,1.2,0.1,1.9-0.2
			c0.7-0.3,1.1-0.8,1.2-1.5c0.1-0.7-0.2-1.6-0.8-2.6c-0.8-1.2-1.6-2.2-2.3-3.1c-0.7-0.9-1.6-1.9-2.6-3.1c-0.7-0.9-1.4-1.4-2.1-1.5
			c-0.7-0.1-1.3,0.1-1.9,0.7c-0.6,0.6-0.8,1.1-0.7,1.8C496.9,160.8,497.3,161.5,498,162.3z"/>
		<path d="M516.1,164.3c0.7,1,1.3,2.1,2,3.2c0.7,1,1.3,1.7,1.8,2c0.5,0.3,1.1,0.3,1.9,0c0.9-0.3,1.3-0.9,1.3-1.6s-0.3-1.7-1-2.8
			c-0.7-1.2-1.4-2.4-2-3.4c-0.6-1-1.4-2.2-2.4-3.3c-0.8-1-1.5-1.6-2.2-1.7c-0.7-0.1-1.3,0.1-1.8,0.5c-0.7,0.5-1,1-0.9,1.6
			c0.1,0.6,0.4,1.4,1.1,2.4C514.7,162.2,515.4,163.3,516.1,164.3z"/>
		<path d="M493.7,199.1h31c1.2,2.1,1.4,4.4,0.6,7.1c-0.2,0.9-1,1.7-2.3,2.3s-3,1-5.1,0.9c-1.5-0.1-3.1-0.3-4.9-0.7
			c-1.8-0.4-4-1.1-6.7-2c-1.2-0.4-2-0.6-2.6-0.4c-0.6,0.2-1,0.7-1.4,1.5c-0.3,0.8-0.3,1.4-0.1,2s1,1.1,2.3,1.5
			c2.8,1,5.3,1.7,7.4,2.1c2.1,0.4,4.1,0.6,5.9,0.7c2.3,0.1,4.3,0,5.9-0.4c1.6-0.4,2.9-1.1,4-2c1-0.9,1.8-2.1,2.3-3.6
			c0.5-1.5,0.8-3.2,0.8-5.1c0-1.2-0.2-2.6-0.6-3.9h15.5c0.8,0,1.4-0.2,1.7-0.6c0.3-0.4,0.5-1,0.5-1.7c0-0.8-0.2-1.3-0.5-1.7
			c-0.3-0.4-0.9-0.6-1.7-0.6h-18.4c-0.8-0.7-1.6-1.4-2.6-2.1c-0.9-0.6-2-1.2-3.2-1.7c-0.5-0.2-0.7-0.3-0.7-0.4
			c0-0.1,0.3-0.2,0.8-0.4c2.3-0.7,4.5-1.4,6.7-2.1c2.2-0.7,4.6-1.3,7-1.9c1.1-0.3,1.9-0.8,2.4-1.4c0.5-0.6,0.7-1.2,0.7-1.9
			c0-0.9-0.4-1.8-1.1-2.5c-0.7-0.7-1.8-1.1-3.4-1.1h-32.9c-1.5,0-2.2,0.7-2.2,2.2c0,1.5,0.7,2.3,2.2,2.3h24.8c0.8,0,1.2,0,1.1,0.1
			c-0.1,0.1-0.4,0.2-1.1,0.4c-1.8,0.5-3.6,1-5.3,1.5c-1.7,0.5-3.4,1-5,1.6c-0.8,0.3-1.5,0.7-1.9,1.2c-0.5,0.5-0.8,1-0.9,1.6
			c-0.1,0.5,0,1.1,0.3,1.5c0.3,0.5,0.9,0.9,1.7,1.1c0.8,0.3,1.6,0.6,2.3,0.9c0.7,0.3,1.5,0.6,2.1,0.9h-25.6c-1.5,0-2.3,0.8-2.3,2.3
			c0,0.7,0.2,1.2,0.5,1.7C492.3,198.9,492.9,199.1,493.7,199.1z"/>
		<path d="M582.4,181.2c0.5-0.6,0.7-1.2,0.6-1.8c-0.1-0.6-0.5-1.3-1.2-1.9c-1.7-1.3-3.6-2.6-5.6-3.9c-2-1.3-4-2.4-5.9-3.4
			c-0.8-0.4-1.5-0.6-2.1-0.7c-0.6,0-1.1,0.3-1.5,1c-0.4,0.6-0.5,1.3-0.3,1.8c0.1,0.6,0.6,1.1,1.4,1.5c2.1,1.1,4.1,2.3,6,3.7
			c2,1.3,3.6,2.5,5.1,3.7C580.2,182.3,581.4,182.3,582.4,181.2z"/>
		<path d="M557.6,197.1H582c-1,1.5-2.2,2.9-3.6,4.1c-1.4,1.2-3.1,2.3-5,3.3c-1.9,1-4.1,1.9-6.6,2.7c-2.5,0.8-5.2,1.6-8.3,2.3
			c-0.8,0.2-1.5,0.6-1.9,1.1c-0.4,0.5-0.5,1.2-0.4,1.9c0.2,0.8,0.6,1.3,1.1,1.5s1.3,0.2,2.2,0c7.1-1.4,12.7-3.2,16.9-5.6
			c4.2-2.4,7.4-5.4,9.6-9.2c4.2,2.8,7.9,5.3,11,7.6c3.1,2.3,6,4.5,8.6,6.5c0.8,0.6,1.6,1,2.3,1.1c0.7,0.1,1.3-0.2,1.7-0.8
			c0.6-0.7,0.7-1.4,0.5-2.1c-0.2-0.7-0.7-1.5-1.6-2.1c-2.5-1.9-5.2-3.9-8.1-5.9c-2.9-2-6.1-4.1-9.7-6.4h16.9c1.6,0,2.4-0.7,2.4-2.2
			c0-1.5-0.7-2.3-2.2-2.3h-19c0.3-1,0.5-2.1,0.8-3.3c0.2-1.2,0.4-2.5,0.5-3.9c0.1-1.4,0.3-3,0.3-4.8c0.1-1.8,0.1-3.8,0.1-6V171
			c0-2.3-0.9-3.3-2.7-3.2c-0.7,0.1-1.2,0.4-1.5,1c-0.3,0.6-0.5,1.4-0.6,2.3c0,0.9,0.1,1.7,0.1,2.4c0,0.7,0,1.5,0,2.3
			c0,4.1-0.2,7.5-0.5,10.1c-0.3,2.6-0.7,4.9-1.3,6.7h-26.6c-0.8,0-1.4,0.2-1.7,0.5c-0.3,0.3-0.5,0.9-0.5,1.7c0,0.7,0.2,1.3,0.5,1.7
			C556.3,196.9,556.8,197.1,557.6,197.1z"/>
		<path d="M577.7,187.2c-0.7-0.5-1.6-1.1-2.5-1.7c-0.9-0.6-1.9-1.3-2.9-1.9c-1-0.6-2-1.2-2.9-1.8c-1-0.6-1.9-1.1-2.7-1.5
			c-0.8-0.4-1.5-0.6-2.1-0.7c-0.5-0.1-1.1,0.3-1.5,1c-0.4,0.6-0.5,1.2-0.4,1.9c0.1,0.6,0.7,1.2,1.6,1.8c0.7,0.4,1.5,0.9,2.4,1.4
			c0.9,0.5,1.8,1,2.7,1.6c0.9,0.6,1.8,1.1,2.7,1.8c0.9,0.6,1.7,1.2,2.4,1.8c0.9,0.7,1.7,1.1,2.3,1c0.6-0.1,1.1-0.4,1.6-1.1
			c0.5-0.6,0.6-1.1,0.5-1.8C578.8,188.3,578.4,187.7,577.7,187.2z"/>
		<path d="M558.8,177.9c0.7,0,1.2-0.2,1.7-0.6c0.4-0.4,0.6-1,0.6-1.8v-7.4c0-1,0.4-1.6,1.3-1.6h40.2c1.8,0,2.7,0.8,2.7,2.5
			c0,0.6-0.1,1.4-0.4,2.3c-0.2,0.9-0.6,1.9-1,3c-0.4,1.1-0.5,1.9-0.3,2.5c0.2,0.6,0.6,1,1.3,1.3c0.7,0.3,1.3,0.3,1.9,0
			c0.6-0.3,1.1-0.9,1.4-2c0.6-2.1,1-3.8,1.3-5.2c0.3-1.4,0.4-2.6,0.5-3.7c0-1.5-0.5-2.8-1.7-3.8c-1.2-1-3.1-1.5-5.7-1.5h-16.9
			c-0.2-0.6-0.4-1.3-0.6-1.8c-0.2-0.6-0.4-1.1-0.6-1.6c-0.6-1.1-1.1-1.8-1.8-2c-0.6-0.2-1.2-0.2-1.9,0.1c-0.6,0.3-1.1,0.8-1.3,1.4
			c-0.2,0.6-0.1,1.3,0.3,2.1c0.2,0.4,0.4,0.7,0.5,1s0.3,0.6,0.4,0.9h-18.3c-2.1,0-3.7,0.5-4.6,1.5c-0.9,1-1.4,2.5-1.4,4.6v7.4
			C556.4,177.1,557.2,177.9,558.8,177.9z"/>
		<path d="M656.7,182.5c-0.2-1.1-0.6-1.9-0.9-2.3c-0.4-0.4-1-0.5-2-0.3c-0.8,0.2-1.3,0.5-1.5,1.1c-0.2,0.6-0.2,1.5,0,2.6
			c0.6,2.8,1.1,5.9,1.5,9.3c0.4,3.4,0.7,6.7,0.8,9.9c0,1.1,0.3,1.9,0.6,2.3c0.4,0.5,1,0.7,1.8,0.6c0.9-0.1,1.5-0.4,1.8-0.8
			c0.3-0.5,0.4-1.3,0.3-2.5c-0.2-3.7-0.6-7.3-1-10.9C657.7,188,657.2,185,656.7,182.5z"/>
		<path d="M618.2,202.2c0.5,0.2,1.1,0.1,1.9-0.2c1.1-0.4,2.2-0.7,3.1-1.1c0.9-0.3,1.8-0.7,2.7-1.1c0.8-0.4,1.7-0.7,2.5-1.1
			c0.8-0.4,1.7-0.8,2.5-1.3c0.8-0.4,1.3-0.9,1.5-1.5c0.2-0.5,0.1-1.1-0.2-1.7c-0.3-0.7-0.8-1.1-1.3-1.2c-0.5-0.1-1.2,0.1-2,0.5
			c-0.8,0.4-1.6,0.8-2.3,1.2c-0.7,0.4-1.5,0.7-2.2,1c-0.8,0.3-1.6,0.6-2.4,0.9c-0.9,0.3-1.8,0.6-2.8,0.9c-1.7,0.5-2.3,1.5-1.9,3
			C617.4,201.5,617.7,202,618.2,202.2z"/>
		<path d="M635.6,174.4c-0.2,0.6-0.1,1.2,0.2,1.9c0.8,1.5,2.1,1.6,4,0.3c0.1-0.1,0.2-0.2,0.4-0.2c0.1-0.1,0.2-0.2,0.4-0.2
			c0,0.1-0.1,0.3-0.1,0.6c0,1.5,0.8,2.2,2.5,2.2h23.6c1.6,0,2.4-0.7,2.4-2.2c0-1.5-0.8-2.3-2.4-2.3h-23.8c2.3-1.8,4.3-3.6,6.1-5.4
			c1.8-1.8,3.6-3.9,5.5-6.3c0.4-0.5,0.7-0.7,1-0.7c0.3,0,0.6,0.2,1,0.7c1.8,2.1,3.9,4.2,6.3,6.5c2.4,2.3,5,4.5,7.8,6.7
			c1,0.8,1.8,1.2,2.4,1.3c0.7,0.1,1.2-0.3,1.7-1.1c0.4-0.6,0.6-1.3,0.4-1.9c-0.2-0.6-0.8-1.3-1.8-2c-2.7-1.9-5.2-3.9-7.5-6
			s-4.7-4.6-7-7.3c-0.5-0.6-1-1-1.7-1.2c-0.6-0.3-1.3-0.4-1.9-0.4c-0.5,0-1.1,0.1-1.8,0.4c-0.6,0.2-1.3,0.7-1.9,1.5
			c-2.3,2.8-4.6,5.3-6.8,7.5c-2.3,2.2-4.7,4.2-7.3,5.8C636.5,173.2,635.8,173.8,635.6,174.4z"/>
		<path d="M647.8,192.5c-0.3-1.8-0.6-3.4-0.9-5c-0.3-1.6-0.6-3-1-4.2c-0.3-1.1-0.6-1.8-1-2.2c-0.4-0.4-1.1-0.5-2-0.3
			c-0.8,0.2-1.3,0.6-1.5,1.2c-0.2,0.6-0.1,1.5,0.2,2.6c0.4,1.4,0.7,2.9,1,4.5s0.6,3.2,0.8,4.9c0.3,1.7,0.5,3.4,0.7,5.1
			c0.2,1.7,0.4,3.4,0.5,5c0.1,1.1,0.3,1.9,0.7,2.3c0.4,0.4,1,0.6,1.9,0.5c0.9-0.1,1.5-0.4,1.7-0.9c0.2-0.5,0.3-1.4,0.2-2.6
			c-0.2-1.9-0.4-3.7-0.6-5.6C648.3,196,648.1,194.2,647.8,192.5z"/>
		<path d="M637.2,198c0.1-1.7,0.2-3.3,0.3-5c0.1-1.7,0.1-3.2,0.2-4.7c0.1-3.1-1.1-4.7-3.6-4.8l2.1-17.4c0.2-1.4,0.2-2.5,0.1-3.4
			c-0.1-0.9-0.4-1.6-0.8-2.1c-0.4-0.5-0.9-0.8-1.6-1c-0.7-0.2-1.5-0.3-2.5-0.3h-10.8c-0.9,0-1.6,0.2-1.9,0.5
			c-0.4,0.4-0.5,0.9-0.5,1.7c0,0.8,0.2,1.4,0.5,1.8c0.4,0.4,1,0.5,1.9,0.5H631c0.8,0,1.1,0.4,1,1.2l-2.2,18.3h-5
			c-0.4,0-0.7-0.1-0.8-0.2c-0.1-0.1-0.2-0.4-0.1-0.7l1.3-14.7c0.1-0.9,0-1.6-0.3-2c-0.3-0.4-0.8-0.7-1.6-0.8
			c-0.8-0.1-1.4,0.1-1.7,0.5c-0.3,0.4-0.6,1.1-0.6,2.1l-1.2,14.3c-0.1,1.1-0.2,2-0.1,2.8c0.1,0.8,0.2,1.4,0.5,1.8
			c0.3,0.5,0.8,0.8,1.4,1c0.6,0.2,1.4,0.3,2.5,0.3h8.3c0.4,0,0.7,0.1,0.9,0.2c0.1,0.1,0.2,0.4,0.2,0.8c0,1.4,0,2.9-0.1,4.5
			c-0.1,1.6-0.2,3.1-0.3,4.6c-0.1,1.5-0.3,3-0.4,4.3c-0.2,1.4-0.3,2.6-0.5,3.6c-0.2,0.9-0.5,1.6-0.8,2c-0.3,0.4-0.8,0.6-1.6,0.6
			c-0.6,0-1.3-0.1-2.1-0.3c-0.8-0.2-1.8-0.5-2.8-0.8c-1.5-0.5-2.4,0-2.8,1.3c-0.2,0.9-0.2,1.6,0.1,2c0.2,0.5,0.8,0.9,1.8,1.2
			c1.3,0.4,2.5,0.8,3.5,1c1,0.2,1.9,0.3,2.7,0.3c1.8,0,3.2-0.5,4.2-1.5c1-1,1.7-2.8,2.1-5.3c0.1-1,0.3-2.2,0.4-3.7
			C637,201.2,637.1,199.6,637.2,198z"/>
		<path d="M674.8,211.8c0.3-0.4,0.5-0.9,0.5-1.6c0-0.7-0.2-1.2-0.5-1.6c-0.3-0.4-0.9-0.6-1.7-0.6h-8.4c1.3-3.9,2.4-7.9,3.4-11.9
			c1-4,1.8-7.9,2.4-11.6c0.2-1.4,0.3-2.4,0-2.9c-0.2-0.5-0.8-0.8-1.7-1c-0.9-0.1-1.6,0.1-1.9,0.5c-0.4,0.5-0.6,1.3-0.8,2.5
			c-0.3,1.9-0.7,3.9-1.1,6c-0.4,2.1-0.9,4.2-1.4,6.2c-0.5,2.1-1,4.1-1.6,6.2c-0.6,2.1-1.2,4-1.8,5.9h-21.4c-0.8,0-1.4,0.2-1.7,0.6
			c-0.3,0.4-0.5,0.9-0.5,1.6c0,0.7,0.2,1.2,0.5,1.6c0.3,0.4,0.9,0.6,1.7,0.6h34.4C673.9,212.4,674.5,212.2,674.8,211.8z"/>
		<path d="M685.2,175.9c1.6,0,2.4-0.8,2.4-2.5v-5c0-0.5,0.1-0.9,0.4-1.2c0.2-0.3,0.6-0.5,1-0.5h41.8c1.5,0,2.2,0.6,2.2,1.9
			c0,0.6-0.1,1.1-0.2,1.7c-0.2,0.6-0.5,1.4-1,2.6c-0.5,1-0.6,1.9-0.5,2.4c0.2,0.6,0.6,1,1.4,1.4c1.5,0.7,2.6,0,3.4-2.1
			c0.5-1.3,0.9-2.4,1-3.3c0.2-0.9,0.2-1.9,0.2-2.8c0-4.3-2.2-6.4-6.7-6.4h-18.5c-0.3-0.8-0.6-1.6-0.9-2.4c-0.3-0.7-0.6-1.3-0.8-1.7
			c-0.4-0.8-0.9-1.4-1.4-1.7c-0.5-0.3-1.1-0.3-1.9,0.1c-0.7,0.3-1.2,0.7-1.5,1.3c-0.3,0.6-0.2,1.3,0.4,2.1c0.2,0.3,0.4,0.7,0.6,1.1
			c0.2,0.4,0.4,0.8,0.6,1.2h-18.4c-2.1,0-3.7,0.5-4.6,1.4c-0.9,0.9-1.4,2.6-1.4,5v4.9c0,0.9,0.2,1.5,0.6,1.9
			C683.8,175.7,684.4,175.9,685.2,175.9z"/>
		<path d="M737.4,212.7c0.5-0.3,0.7-0.9,0.7-1.7c0-1.5-0.9-2.3-2.7-2.3h-23.3v-7.8h18.9c0.8,0,1.4-0.2,1.9-0.5
			c0.5-0.3,0.8-0.9,0.8-1.7c0-0.7-0.2-1.2-0.7-1.7c-0.5-0.4-1.1-0.6-1.9-0.6h-18.9v-4.9c0-0.8-0.2-1.5-0.7-1.9
			c-0.4-0.4-1-0.6-1.7-0.6c-1.5,0-2.3,0.8-2.3,2.5v4.9h-18.9c-0.9,0-1.6,0.2-2,0.6c-0.4,0.4-0.7,1-0.7,1.7c0,0.8,0.3,1.4,0.8,1.7
			c0.5,0.3,1.2,0.5,2,0.5h18.8v7.8h-23c-1.7,0-2.5,0.8-2.5,2.3c0,0.8,0.2,1.4,0.7,1.7c0.5,0.3,1.1,0.5,1.9,0.5h51
			C736.3,213.2,736.9,213,737.4,212.7z"/>
		<path d="M689.9,183.1c-0.7,0.4-1.3,0.9-1.7,1.5c-0.4,0.6-0.6,1.2-0.6,1.7c0,0.8,0.5,1.6,1.4,2.1c0.9,0.6,2.4,0.8,4.4,0.8l33.8-1.3
			c0.4,0.4,0.8,0.9,1.2,1.5c0.4,0.5,0.8,1.1,1.3,1.6c0.7,0.9,1.4,1.5,2.1,1.6c0.7,0.1,1.3,0,1.8-0.3c0.6-0.5,1-1.1,1.1-1.7
			c0.1-0.6-0.3-1.4-1-2.3c-0.8-0.9-1.6-1.8-2.3-2.7c-0.7-0.9-1.5-1.7-2.2-2.6c-0.7-0.8-1.5-1.7-2.3-2.5c-0.8-0.8-1.7-1.8-2.7-2.7
			c-0.8-0.8-1.5-1.2-2.2-1.3c-0.6-0.1-1.2,0.2-1.8,0.7c-0.5,0.5-0.8,1-0.8,1.6c0,0.6,0.3,1.2,0.9,1.8c0.6,0.6,1.2,1.2,1.7,1.7
			c0.5,0.5,1,1,1.5,1.5l-26.2,0.8c-1.1,0.1-1.2-0.2-0.2-1c1.5-1,3.1-2.2,4.7-3.4c1.6-1.2,3.3-2.6,5.2-4.2H728c1.7,0,2.5-0.7,2.5-2.1
			c0-0.7-0.2-1.3-0.7-1.8c-0.4-0.4-1.1-0.7-1.9-0.7h-36.3c-0.9,0-1.6,0.2-2,0.7c-0.4,0.4-0.6,1-0.6,1.8c0,0.8,0.3,1.3,0.8,1.6
			c0.5,0.3,1.2,0.5,2,0.5h8.5c-1.7,1.3-3.4,2.6-5.1,3.8C693.4,180.9,691.7,182,689.9,183.1z"/>
	</g>
	<path d="M131.3,121.3c9,10.2-5.2,20.7-13.9,11.4c-8.3-9-17.5-10.8-27.9-10.8c-21.2,0-35.2,14.7-35.2,36.6
		c0,23.5,14.4,39.1,36.1,39.1c10.5,0,21.9-6,28.2-13.7c9-10.8,23.4-1.3,15.2,10c-9.2,12.9-27.4,20.7-43.7,20.7
		c-32.9,0-54.9-22.4-54.9-56.1c0-32.2,23.7-53.6,54.6-53.6C106.1,104.8,120.4,109.1,131.3,121.3z"/>
	<path d="M208.2,214.5c-32.7,0-54.8-21.9-54.8-54.8c0-32.9,22-54.9,54.8-54.9c32.5,0,54.2,22,54.2,54.9
		C262.5,192.6,240.8,214.5,208.2,214.5z M242.9,159.7c0-22.7-13.9-37.9-34.7-37.9c-21,0-35.1,15.2-35.1,37.9
		c0,22.5,14,37.7,35.1,37.7C229.1,197.4,242.9,182.2,242.9,159.7z"/>
	<path d="M179.4,244.3l33.1,51.9l33-52c2.1-3.2,5.4-4.6,8.4-4.6c4.6,0,8.9,3.2,8.9,8.9v83.9c0,5.5-4.9,8.2-9.4,8.2
		c-4.6,0-9-2.7-9-8.2v-53.4l-23.6,36.9c-1.7,3.2-5.1,4.6-8.2,4.6c-3.2,0-6.8-1.9-8.6-5.1l-23.3-36.3v53.3c0,5.5-4.8,8.2-9.2,8.2
		c-4.6,0-9.2-2.7-9.2-8.2v-83.7c0-5.5,4.4-9,9-9C174.3,239.6,177.5,241.3,179.4,244.3z"/>
	<path d="M340.6,378.6c9,10.2-5.2,20.7-13.9,11.4c-8.3-9-17.5-10.8-27.9-10.8c-21.2,0-35.2,14.7-35.2,36.6
		c0,23.5,14.4,39.1,36.1,39.1c10.5,0,21.9-6,28.2-13.7c9-10.8,23.4-1.3,15.2,10c-9.2,12.9-27.4,20.7-43.7,20.7
		c-32.9,0-54.9-22.4-54.9-56.1c0-32.2,23.7-53.6,54.6-53.6C315.4,362.1,329.7,366.4,340.6,378.6z"/>
	<path d="M368.4,434.4c4.3,0,8.3,2.2,9.2,6.5c3.7,10.8,19,13.4,30.2,13.4c11.7,0,30-3,30-16.2c0-10.5-15.2-11.9-30-13
		c-22.7-1.8-48.6-5-48.6-30.4c0-22.9,26-32.5,46.9-32.5c17.4,0,39.6,5,47.4,23.4c1.8,6.2-3.8,10.8-9.5,10.8c-3.7,0-7.2-1.7-8.5-4.7
		c-4-10.3-19-11.7-29.2-11.7c-9,0-27,3.2-27,14.9c0,10.8,14,12.2,30.4,13.4c23.2,2.2,48.2,3.2,48.2,29.7c0,26.5-29.2,33.9-50.1,33.9
		c-17.4,0-43.9-6-49.6-26.9C356.6,438.4,362.6,434.4,368.4,434.4z"/>
	<path class="st2" d="M203.2,452.1L203.2,452.1c-5.1,0-9.3-4.2-9.3-9.3v-51.7c0-5.1,4.2-9.3,9.3-9.3h0c5.1,0,9.3,4.2,9.3,9.3v51.7
		C212.5,447.9,208.3,452.1,203.2,452.1z"/>
	<path class="st3" d="M182.5,392.4v-20.9c0-5.1-4.2-9.3-9.3-9.3h0c-5.1,0-9.3,4.2-9.3,9.3v20.9c0,4.5,3.3,8.3,7.6,9.1
		c-4.3,0.8-7.6,4.6-7.6,9.1v51.7c0,5.1,4.2,9.3,9.3,9.3s9.3-4.2,9.3-9.3v-51.7c0-4.5-3.3-8.3-7.6-9.1
		C179.2,400.7,182.5,396.9,182.5,392.4z"/>
</g>
</svg>
