<svg xmlns="http://www.w3.org/2000/svg" viewBox="0 0 841.89 595.28"><defs><style>.cls-1{fill:#000e1a;}.cls-2{fill:#ed6c00;}.cls-3{fill:#2bb7b3;}</style></defs><g id="图层_1" data-name="图层 1"><path class="cls-1" d="M321.57,253a14.51,14.51,0,0,1,11.24,4.7c1.73,1.85,5-.68,3.15-2.78a19.14,19.14,0,0,0-14.51-6.12c-8.28,0-20.26,5.56-20.26,19.7,0,12.11,9.39,20.82,19.89,20.82,5.87,0,12.35-2.84,15.75-7.66,1.6-2.29-2.17-4.51-3.52-2.47A15.36,15.36,0,0,1,321.2,285c-8.46,0-15.62-7.16-15.62-16.48C305.58,256.39,315,253,321.57,253Z"/><path class="cls-1" d="M381.86,268.37c0-13.9-12-19.58-20.26-19.58s-19.51,5.74-19.51,19.58c0,13.09,8.89,20.94,20,20.94C372.6,289.31,381.86,281.22,381.86,268.37Zm-35.14.19c0-11.62,8.71-15.63,15-15.63s15.56,4.32,15.56,15.63c0,10.37-6.85,16.55-15.19,16.55C353.39,285.11,346.72,278.68,346.72,268.56Z"/><path class="cls-1" d="M412,279l12.6-19.7v27.18a2.26,2.26,0,0,0,4.51,0V251.82a2.17,2.17,0,0,0-2.1-2.41,2.45,2.45,0,0,0-2.16,1.3l-14.95,23.47-15.07-23.41a2.35,2.35,0,0,0-2-1.36,2.27,2.27,0,0,0-2.16,2.47v34.59a2.26,2.26,0,0,0,4.51,0V259.41L407.75,279A2.4,2.4,0,0,0,412,279Z"/><path class="cls-1" d="M442.35,249.41a2.18,2.18,0,0,0-2.29,2.16v35.08a2.23,2.23,0,0,0,4.45-.06v-9.45h11.05c10.81,0,15.88-6.11,15.88-13.53,0-7.1-5-14.2-15.69-14.2Zm24.7,14.2c0,4.7-3.27,9.52-11.49,9.52H444.51V253.42h11.3C463,253.42,467.05,258.55,467.05,263.61Z"/><path class="cls-1" d="M515.92,251a2.19,2.19,0,0,0-2.29-2.23,2.21,2.21,0,0,0-2.34,2.29v20.38c0,8.89-6.8,13.4-13.59,13.4s-13.59-4.51-13.59-13.4V250.89a2.14,2.14,0,0,0-2.35-2.1,2.11,2.11,0,0,0-2.28,2v20.63c0,11.86,9.2,17.85,18.22,17.85s18.22-6,18.22-17.85Z"/><path class="cls-1" d="M523.27,253.67H537V286.4a2.18,2.18,0,0,0,2.22,2.29,2.29,2.29,0,0,0,2.35-2.29l-.06-32.73h13.77a2.13,2.13,0,1,0,0-4.26h-32A2.13,2.13,0,1,0,523.27,253.67Z"/><path class="cls-1" d="M593.44,285.72,575.23,250a2.3,2.3,0,0,0-4,0L553,285.79c-.74,1.6.8,2.9,2.22,2.9a2,2,0,0,0,1.86-1.11l4.57-8.83h23.22l4.45,8.77a2.15,2.15,0,0,0,2,1.17C592.89,288.69,594.31,287.45,593.44,285.72Zm-30-10.86,9.76-19.46,9.7,19.46Z"/><path class="cls-1" d="M623.78,249.41h-32a2.13,2.13,0,1,0,0,4.26H605.5V286.4a2.18,2.18,0,0,0,2.22,2.29,2.29,2.29,0,0,0,2.35-2.29L610,253.67h13.78A2.13,2.13,0,1,0,623.78,249.41Z"/><path class="cls-1" d="M633.23,249.41A2.2,2.2,0,0,0,631,251.7v34.83a2.1,2.1,0,0,0,2.28,2.16,2.19,2.19,0,0,0,2.35-2.16V251.7A2.21,2.21,0,0,0,633.23,249.41Z"/><path class="cls-1" d="M662.08,248.79c-8.15,0-19.52,5.74-19.52,19.58,0,13.09,8.9,20.94,20,20.94,10.5,0,19.76-8.09,19.76-20.94C682.34,254.47,670.36,248.79,662.08,248.79Zm.5,36.32c-8.71,0-15.38-6.43-15.38-16.55,0-11.62,8.7-15.63,15-15.63s15.57,4.32,15.57,15.63C677.77,278.93,670.91,285.11,662.58,285.11Z"/><path class="cls-1" d="M721.26,249.41a2.14,2.14,0,0,0-2.41,2v21.36l.62,9.33-23.78-31.25a3.1,3.1,0,0,0-2.53-1.42,2.47,2.47,0,0,0-2.47,2.72V286.4a2.35,2.35,0,0,0,4.69,0V265.16l-.49-8.52L718,287.27a3.15,3.15,0,0,0,2.71,1.42,2.64,2.64,0,0,0,2.85-2.66V251.39A2.07,2.07,0,0,0,721.26,249.41Z"/><path class="cls-1" d="M751.78,250a2.29,2.29,0,0,0-4,0l-18.23,35.82c-.74,1.6.81,2.9,2.23,2.9a2,2,0,0,0,1.85-1.11l4.57-8.83h23.23l4.44,8.77a2.15,2.15,0,0,0,2,1.17c1.54,0,3-1.24,2.1-3ZM740,274.86l9.76-19.46,9.7,19.46Z"/><path class="cls-1" d="M804.41,284.61h-23.1v-33a2.1,2.1,0,0,0-2.28-2.16,2.14,2.14,0,0,0-2.29,2.16V286.4c0,1.49.68,2.29,2.35,2.29h25.32C807.56,288.69,807.56,284.61,804.41,284.61Z"/><path class="cls-1" d="M320.4,299.83c-8.15,0-19.52,5.74-19.52,19.57,0,13.1,8.89,20.94,20,20.94,10.5,0,19.77-8.09,19.77-20.94C340.66,305.51,328.67,299.83,320.4,299.83Zm.49,36.31c-8.71,0-15.38-6.42-15.38-16.55,0-11.61,8.71-15.63,15-15.63s15.57,4.33,15.57,15.63C336.09,330,329.23,336.14,320.89,336.14Z"/><path class="cls-1" d="M385.81,300.44a2.46,2.46,0,0,0-2.16,1.3l-14.94,23.47L353.64,301.8a2.36,2.36,0,0,0-2-1.36,2.27,2.27,0,0,0-2.16,2.47V337.5a2.25,2.25,0,0,0,4.5,0V310.45L366.54,330a2.41,2.41,0,0,0,4.27,0l12.6-19.71V337.5a2.25,2.25,0,0,0,4.5,0V302.85A2.17,2.17,0,0,0,385.81,300.44Z"/><path class="cls-1" d="M400.71,300.44a2.2,2.2,0,0,0-2.29,2.29v34.83a2.11,2.11,0,0,0,2.29,2.16,2.19,2.19,0,0,0,2.35-2.16V302.73A2.22,2.22,0,0,0,400.71,300.44Z"/><path class="cls-1" d="M442.47,330.21a15.34,15.34,0,0,1-12.11,5.87c-8.46,0-15.63-7.17-15.63-16.49,0-12.17,9.39-15.57,16-15.57a14.56,14.56,0,0,1,11.24,4.7c1.73,1.85,5-.68,3.15-2.78a19.13,19.13,0,0,0-14.51-6.11c-8.28,0-20.26,5.55-20.26,19.7,0,12.1,9.39,20.81,19.89,20.81,5.86,0,12.35-2.84,15.74-7.66C447.59,330.4,443.82,328.17,442.47,330.21Z"/><path class="cls-1" d="M470.82,317.86c-7.16-.56-13.34-1.11-13.34-6.49,0-5.62,8-7,12.17-7,4.45,0,11.05.49,12.91,5.18.92,2.1,5.12,1,4.2-1.48-2.6-7-10.69-8.27-17.17-8.27-7.54,0-16.93,3.33-16.93,11.48,0,9.2,9.15,10,17.67,10.69,6.79.55,13.28,1,13.28,6.36,0,6.24-8.16,7.53-13.41,7.53-4.94,0-11.79-.8-13.4-5.93-.49-2.53-5.31-1.6-4.57,1.12,2,7.41,11.67,9.26,18,9.26,7.6,0,18.16-2.59,18.16-12C488.36,319,479.28,318.6,470.82,317.86Z"/><path class="cls-1" d="M540,335.65h-23.1v-33a2.1,2.1,0,0,0-2.29-2.16,2.13,2.13,0,0,0-2.28,2.16v34.84c0,1.48.68,2.28,2.35,2.28H540C543.16,339.72,543.16,335.65,540,335.65Z"/><path class="cls-1" d="M568.61,301a2.16,2.16,0,0,0-2-1.17,2.19,2.19,0,0,0-2,1.17l-18.22,35.82c-.74,1.61.8,2.9,2.22,2.9a2,2,0,0,0,1.86-1.11l4.57-8.83h23.22l4.45,8.77a2.12,2.12,0,0,0,2,1.17c1.55,0,3-1.23,2.1-3Zm-11.73,24.89,9.76-19.46,9.69,19.46Z"/><path class="cls-1" d="M620.44,318.48a7.55,7.55,0,0,0,4.76-7.35c0-8.77-8.9-10.69-14.64-10.69H595.92a2.27,2.27,0,0,0-2.28,2.23V337.5a2.26,2.26,0,0,0,2.28,2.22H612c7.78,0,16.06-2.47,16.06-11.67C628,323.05,625,319.9,620.44,318.48Zm-22.29-14h12.41c3.83,0,10.13,1.36,10.13,6.67,0,4.51-4.63,5.93-10,5.93H598.15ZM612,335.71H598.15V321.07h15.68c5.38,0,9.58,2.1,9.58,7C623.41,334.29,617.41,335.71,612,335.71Z"/><path class="cls-1" d="M321,181.91h14.51v29.56a2.74,2.74,0,0,0,.54,1.91,2.55,2.55,0,0,0,1.88.57,2.16,2.16,0,0,0,2.42-2.48V181.91h14.51a2.73,2.73,0,0,0,1.81-.52,2.39,2.39,0,0,0,.61-1.9,2.42,2.42,0,0,0-.57-1.85,2.76,2.76,0,0,0-1.85-.51H340.32V159.59a2.49,2.49,0,0,0-.61-1.93,3.37,3.37,0,0,0-3.69,0,2.72,2.72,0,0,0-.54,1.93v17.54H321a2.61,2.61,0,0,0-1.84.54,2.39,2.39,0,0,0-.58,1.82A2.14,2.14,0,0,0,321,181.91Z"/><path class="cls-1" d="M303.31,180.57l5.57-.6c.76-.12,1.1.22,1,1l-1.57,25.21a6.52,6.52,0,0,0,.33,2.84,3.48,3.48,0,0,0,1.3,1.7,2.79,2.79,0,0,0,1.94.39,5.3,5.3,0,0,0,2.3-1,39.16,39.16,0,0,0,3.9-3.23q2-1.84,3.54-3.48,2.24-2.35.24-4a1.94,1.94,0,0,0-1.7-.45,3.94,3.94,0,0,0-1.81,1.24c-.28.28-.62.62-1,1s-.79.83-1.24,1.27-.88.87-1.3,1.27a12.54,12.54,0,0,1-1.18,1q-.66.6-.6-.36l1.45-23.58q.18-3.27-1.18-4.51c-.91-.82-2.33-1.14-4.26-.93l-6.29.6a3.34,3.34,0,0,0-2.09.69,2.05,2.05,0,0,0-.45,1.73,2.49,2.49,0,0,0,.73,1.81A3.32,3.32,0,0,0,303.31,180.57Z"/><path class="cls-1" d="M305.91,162.74q2.29,2.06,4.14,4t3.54,3.72q2.06,2.18,3.63.72a2.44,2.44,0,0,0,1-1.84,3.78,3.78,0,0,0-1.21-2.09q-1.46-1.64-3.21-3.42c-1.17-1.18-2.64-2.57-4.41-4.14a3.87,3.87,0,0,0-2.15-1.15,1.83,1.83,0,0,0-1.54.61A2.23,2.23,0,0,0,305.91,162.74Z"/><path class="cls-1" d="M392.44,169.63a2.68,2.68,0,0,0,1.66.57c.67,0,1.36-.43,2.09-1.36a33.2,33.2,0,0,0,2.54-3.62h5.87c.16.52.3,1,.42,1.45l.3,1.08a3.65,3.65,0,0,0,1.09,2,2.6,2.6,0,0,0,1.93.09,2,2,0,0,0,1.37-.88,3.51,3.51,0,0,0-.1-2.08c-.08-.2-.16-.45-.24-.73s-.16-.58-.24-.9h9.49c1.49,0,2.24-.69,2.24-2.06s-.75-2.06-2.24-2.06H401q.12-.24.21-.45t.21-.45a3.8,3.8,0,0,0,.42-2.45,1.76,1.76,0,0,0-1.45-1.36,2.53,2.53,0,0,0-1.87.09,4,4,0,0,0-1.39,2.14,21.7,21.7,0,0,1-1.85,3.93,25.28,25.28,0,0,1-2.33,3.33Q390.87,168.42,392.44,169.63Z"/><path class="cls-1" d="M365.65,203.55h12.7a8.6,8.6,0,0,1-2.87,4,23.91,23.91,0,0,1-5.53,3,2.92,2.92,0,0,0-1.58,1.4,2.4,2.4,0,0,0-.06,1.75,1.76,1.76,0,0,0,1.15,1.24,4.7,4.7,0,0,0,2.54-.45,31,31,0,0,0,4-1.94,15.38,15.38,0,0,0,3.09-2.36,14.06,14.06,0,0,0,2.24-2.93,18,18,0,0,0,1.51-3.66h19.95v9.19a2.32,2.32,0,0,0,.58,1.76,2.23,2.23,0,0,0,1.6.54c1.41,0,2.11-.77,2.11-2.3v-9.19H419c1.57,0,2.35-.7,2.35-2.11s-.78-2.12-2.35-2.12H407.07v-2.78a2.62,2.62,0,0,0-.18-.91h1a11,11,0,0,0,2.72-.27,3.18,3.18,0,0,0,1.6-.91,3.44,3.44,0,0,0,.79-1.72,14.73,14.73,0,0,0,.21-2.72V176.52a14.3,14.3,0,0,0-.21-2.69,3.42,3.42,0,0,0-.79-1.69,3.19,3.19,0,0,0-1.63-.91,11.1,11.1,0,0,0-2.69-.27H376.48a13.2,13.2,0,0,0-2.63.21,3,3,0,0,0-1.61.85,3.37,3.37,0,0,0-.81,1.72,15.13,15.13,0,0,0-.21,2.78V190a14.1,14.1,0,0,0,.24,2.87,3.54,3.54,0,0,0,.81,1.72,3,3,0,0,0,1.61.82,13.28,13.28,0,0,0,2.6.21h3.14a4.05,4.05,0,0,0-.18,1.27c0,.81-.1,1.61-.18,2.42H365.65c-1.61,0-2.41.71-2.41,2.12S364,203.55,365.65,203.55Zm37.13-7v2.78H383.67a6.33,6.33,0,0,0,.16-1c0-.32.05-.64.09-1v-.93a2.31,2.31,0,0,0-.13-.82H402.9A5.14,5.14,0,0,0,402.78,196.54Zm-27.39-20.26c0-.76.26-1.15.78-1.15H408c.61,0,.91.39.91,1.15v1.57h-33.5Zm0,5.81h33.5v2.47h-33.5Zm.78,9.37c-.52,0-.78-.4-.78-1.21v-1.51h33.5v1.51c0,.81-.3,1.21-.91,1.21Z"/><path class="cls-1" d="M366.47,171.54a3.42,3.42,0,0,0,2.15-1.19,32.33,32.33,0,0,0,4.47-5.32H379c.16.57.31,1.11.45,1.64s.25.94.33,1.27a3.4,3.4,0,0,0,1.18,2.14,2,2,0,0,0,1.72.16,1.82,1.82,0,0,0,1.46-1.12,4.48,4.48,0,0,0-.18-2.33c-.09-.25-.17-.52-.25-.82s-.18-.61-.3-.94h7.74a1.84,1.84,0,0,0,2.12-2.05,2.26,2.26,0,0,0-.46-1.55,2.15,2.15,0,0,0-1.66-.51H375.39c.16-.32.28-.58.36-.79.81-2,.58-3.3-.66-3.74a2.36,2.36,0,0,0-1.85,0,4,4,0,0,0-1.54,2.14,25.14,25.14,0,0,1-2.51,4.66,24,24,0,0,1-3.35,3.93,3.92,3.92,0,0,0-1.52,2.12,1.78,1.78,0,0,0,.55,1.57A2.52,2.52,0,0,0,366.47,171.54Z"/><path class="cls-1" d="M446.14,208.72a2.69,2.69,0,0,0-.55,1.73,2.43,2.43,0,0,0,.55,1.66,2.28,2.28,0,0,0,1.81.63h34.53a2.28,2.28,0,0,0,1.81-.63,2.43,2.43,0,0,0,.55-1.66,2.69,2.69,0,0,0-.55-1.73,2.17,2.17,0,0,0-1.81-.69h-3.39V165a12.07,12.07,0,0,0-.24-2.66,3.21,3.21,0,0,0-.82-1.6,3.08,3.08,0,0,0-1.51-.79,10.81,10.81,0,0,0-2.32-.21H456.3a10.84,10.84,0,0,0-2.33.21,3,3,0,0,0-1.48.76,3.15,3.15,0,0,0-.79,1.57,12.13,12.13,0,0,0-.24,2.66V208H448A2.17,2.17,0,0,0,446.14,208.72Zm10.09-43.38a2,2,0,0,1,.13-.88q.12-.21.6-.21h16.33a1.29,1.29,0,0,1,.84.18c.13.12.18.38.18.79v11.06H456.23Zm0,15.42h18.08v11.61H456.23Zm0,16.08h18.08V208H456.23Z"/><path class="cls-1" d="M428.12,210.78a5.91,5.91,0,0,0,2.84-.21q4.23-1.09,8.62-2.57t8.55-3.36a3.48,3.48,0,0,0,1.67-1.24,2.08,2.08,0,0,0,0-1.66,2.18,2.18,0,0,0-1.42-1.45,4.43,4.43,0,0,0-2.69.54q-4.07,1.75-8.11,3.11t-8.4,2.39a3.59,3.59,0,0,0-2,1,2.27,2.27,0,0,0-.24,1.85A1.91,1.91,0,0,0,428.12,210.78Z"/><path class="cls-1" d="M431.44,180.51l6.11-.24q-3.57,4.48-7.92,9a6,6,0,0,0-1.51,2.33,3.57,3.57,0,0,0-.09,2.27,2.83,2.83,0,0,0,1.45,1.63,5.4,5.4,0,0,0,3,.42c1.94-.16,4.08-.45,6.44-.87a67.34,67.34,0,0,0,7.53-1.85,4.21,4.21,0,0,0,2-1.09,1.94,1.94,0,0,0,.24-1.69c-.41-1.69-1.63-2.2-3.69-1.51-1.41.44-3,.87-4.81,1.27s-3.48.7-5.05.91c-.6.08-.94.08-1,0s0-.29.31-.61a113.85,113.85,0,0,0,7.44-9q3.43-4.62,7.13-10.55a3.76,3.76,0,0,0,.73-2.21,1.74,1.74,0,0,0-1.27-1.48,2.19,2.19,0,0,0-2,0,5.25,5.25,0,0,0-1.6,2c-1.25,2.22-2.54,4.29-3.87,6.23l-6.41.3c-.57,0-.91,0-1-.12s-.06-.34.18-.67c.65-.88,1.34-1.9,2.09-3s1.49-2.35,2.24-3.6,1.48-2.51,2.2-3.78,1.37-2.47,1.94-3.6a4.91,4.91,0,0,0,.69-2.45,1.72,1.72,0,0,0-1.18-1.36,2.23,2.23,0,0,0-1.87-.12,4.31,4.31,0,0,0-1.63,2q-2.13,4-4.75,8.34t-5,7.68c-1.21,1.73-1.53,3.1-1,4.08S429.39,180.6,431.44,180.51Z"/><path class="cls-1" d="M494.75,186.38a2.77,2.77,0,0,0,1.76-.52,2,2,0,0,0,.66-1.72v-7.8a1.79,1.79,0,0,1,.37-1.18,1.17,1.17,0,0,1,1-.45h41.3c1.41,0,2,.32,1.88,1a21.36,21.36,0,0,1-.64,2.14c-.3.87-.68,1.79-1.12,2.75a6.28,6.28,0,0,0-.63,2.36,1.63,1.63,0,0,0,1.06,1.33,2.58,2.58,0,0,0,2.29.34,3.52,3.52,0,0,0,1.82-2.09,33.76,33.76,0,0,0,1.57-4.36,12.61,12.61,0,0,0,.48-3.2,4.16,4.16,0,0,0-1.51-3.66,7.35,7.35,0,0,0-4.23-1h-5.44a45.87,45.87,0,0,0,2.78-4.24q1.2-2.12,2.6-4.66a4.47,4.47,0,0,0,.72-2.62c-.12-.59-.64-1.06-1.57-1.43q-2.05-.84-3.63,2.36c-.93,1.78-1.9,3.48-2.93,5.11a62.76,62.76,0,0,1-4,5.48H497.9q-5.5,0-5.51,5.74v8.16a2.07,2.07,0,0,0,.64,1.78A2.85,2.85,0,0,0,494.75,186.38Z"/><path class="cls-1" d="M498,162.31c.88,1.05,1.67,2.05,2.36,3s1.35,1.88,2,2.81a3.78,3.78,0,0,0,1.84,1.69,2.74,2.74,0,0,0,1.91-.24,2,2,0,0,0,1.21-1.51,3.82,3.82,0,0,0-.85-2.6c-.8-1.17-1.57-2.2-2.29-3.09s-1.6-1.91-2.6-3.08a3.61,3.61,0,0,0-2.12-1.54,2.12,2.12,0,0,0-1.87.69,2.07,2.07,0,0,0-.73,1.76A4.37,4.37,0,0,0,498,162.31Z"/><path class="cls-1" d="M516.07,164.34c.66,1,1.34,2.09,2,3.17a6.59,6.59,0,0,0,1.79,2,2.05,2.05,0,0,0,1.9,0,1.7,1.7,0,0,0,1.33-1.63,6,6,0,0,0-1-2.85c-.68-1.25-1.35-2.4-2-3.44a34.86,34.86,0,0,0-2.36-3.33,3.94,3.94,0,0,0-2.21-1.72,2.32,2.32,0,0,0-1.84.51,1.77,1.77,0,0,0-.94,1.6,5.8,5.8,0,0,0,1.12,2.39C514.69,162.21,515.4,163.31,516.07,164.34Z"/><path class="cls-1" d="M493.73,199.14h30.95a9,9,0,0,1,.61,7.13A4,4,0,0,1,523,208.6a10,10,0,0,1-5,.88,30.5,30.5,0,0,1-4.93-.73,64.11,64.11,0,0,1-6.68-2,4.36,4.36,0,0,0-2.63-.4,2.32,2.32,0,0,0-1.36,1.49,2.39,2.39,0,0,0-.06,2,3.87,3.87,0,0,0,2.3,1.54,50.43,50.43,0,0,0,7.38,2.12,41,41,0,0,0,5.86.72,20.26,20.26,0,0,0,5.93-.42,9,9,0,0,0,4-2,8.48,8.48,0,0,0,2.27-3.6,18.9,18.9,0,0,0,.84-5.14,11.61,11.61,0,0,0-.6-3.93h15.48a2.07,2.07,0,0,0,1.72-.64,2.55,2.55,0,0,0,.51-1.66,2.51,2.51,0,0,0-.51-1.72,2.19,2.19,0,0,0-1.72-.58H527.28a20.52,20.52,0,0,0-2.56-2,17.74,17.74,0,0,0-3.18-1.7q-.72-.24-.72-.39t.78-.39c2.26-.73,4.51-1.42,6.74-2.09s4.59-1.3,7-1.9a4.83,4.83,0,0,0,2.36-1.36,3,3,0,0,0,.72-1.91,3.55,3.55,0,0,0-1.06-2.51,4.53,4.53,0,0,0-3.41-1.12H501.1a2,2,0,0,0-2.24,2.18,2,2,0,0,0,2.24,2.3h24.79c.81,0,1.17,0,1.09.12a3.71,3.71,0,0,1-1.09.36c-1.81.48-3.58,1-5.32,1.48s-3.38,1-5,1.6a5.47,5.47,0,0,0-1.93,1.25,3.09,3.09,0,0,0-.88,1.57,2,2,0,0,0,.33,1.54,3.28,3.28,0,0,0,1.7,1.15l2.33.94c.74.3,1.46.61,2.14.93H493.73a2,2,0,0,0-2.3,2.3,2.46,2.46,0,0,0,.54,1.66A2.18,2.18,0,0,0,493.73,199.14Z"/><path class="cls-1" d="M582.37,181.18a2.21,2.21,0,0,0,.57-1.82,3.19,3.19,0,0,0-1.23-1.87c-1.74-1.33-3.61-2.63-5.63-3.9s-4-2.39-5.86-3.35a5.67,5.67,0,0,0-2.06-.67c-.56,0-1.07.3-1.51,1a2.45,2.45,0,0,0-.33,1.84,2.54,2.54,0,0,0,1.42,1.54c2,1.13,4.06,2.35,6,3.66s3.64,2.53,5,3.66S581.36,182.31,582.37,181.18Z"/><path class="cls-1" d="M557.64,197.08H582a19.69,19.69,0,0,1-3.63,4.11,25.72,25.72,0,0,1-5,3.3,44.63,44.63,0,0,1-6.56,2.69c-2.46.81-5.22,1.57-8.29,2.3a3.09,3.09,0,0,0-1.87,1.12,2.24,2.24,0,0,0-.36,1.9,2,2,0,0,0,1.15,1.54,3.93,3.93,0,0,0,2.23,0q10.59-2.06,16.93-5.62a24.88,24.88,0,0,0,9.62-9.19q6.28,4.17,11,7.65t8.65,6.5a4.38,4.38,0,0,0,2.27,1.06,1.88,1.88,0,0,0,1.72-.76,2.3,2.3,0,0,0,.55-2.15,4.3,4.3,0,0,0-1.63-2.14q-3.75-2.91-8.08-5.9t-9.7-6.44h16.87c1.57,0,2.36-.72,2.36-2.17a2,2,0,0,0-2.24-2.3H589c.28-1,.53-2.1.76-3.27s.4-2.47.54-3.9.25-3,.33-4.81.13-3.78.13-6V171q0-3.39-2.67-3.21a2,2,0,0,0-1.54,1,5.05,5.05,0,0,0-.57,2.33c0,.89.06,1.71.06,2.45v2.27a89.77,89.77,0,0,1-.46,10.12,36.39,36.39,0,0,1-1.3,6.69h-26.6a2.3,2.3,0,0,0-1.7.51,2.4,2.4,0,0,0-.48,1.66,2.69,2.69,0,0,0,.48,1.7A2.09,2.09,0,0,0,557.64,197.08Z"/><path class="cls-1" d="M577.65,187.16c-.72-.52-1.55-1.09-2.48-1.72s-1.88-1.26-2.87-1.9-2-1.25-2.93-1.82-1.88-1.07-2.72-1.51a9,9,0,0,0-2.09-.66c-.54-.08-1.06.26-1.54,1a2.39,2.39,0,0,0-.39,1.88,2.9,2.9,0,0,0,1.6,1.75c.72.45,1.54.92,2.45,1.42s1.81,1,2.72,1.6,1.81,1.15,2.72,1.76,1.72,1.19,2.45,1.75a3.52,3.52,0,0,0,2.3,1,2.34,2.34,0,0,0,1.63-1.06,1.86,1.86,0,0,0,.48-1.75A3.44,3.44,0,0,0,577.65,187.16Z"/><path class="cls-1" d="M558.79,177.91a2.32,2.32,0,0,0,1.66-.6,2.4,2.4,0,0,0,.64-1.81v-7.38c0-1.05.44-1.58,1.33-1.58h40.21c1.77,0,2.66.83,2.66,2.49a9.15,9.15,0,0,1-.37,2.29q-.36,1.4-1,3a4,4,0,0,0-.31,2.54,2,2,0,0,0,1.27,1.26,2.27,2.27,0,0,0,1.94,0,3,3,0,0,0,1.39-2c.6-2.06,1-3.78,1.33-5.17a23.43,23.43,0,0,0,.48-3.72,4.45,4.45,0,0,0-1.72-3.75q-1.79-1.46-5.71-1.45H585.7c-.21-.64-.42-1.26-.64-1.84s-.43-1.12-.64-1.61a4,4,0,0,0-1.75-2,2.55,2.55,0,0,0-3.2,1.51,2.62,2.62,0,0,0,.3,2.06q.3.54.51,1c.14.31.28.6.4.88H562.42c-2.14,0-3.67.51-4.6,1.51a6.59,6.59,0,0,0-1.39,4.6v7.44A2.06,2.06,0,0,0,558.79,177.91Z"/><path class="cls-1" d="M656.69,182.51a4.84,4.84,0,0,0-.94-2.27,2.19,2.19,0,0,0-2-.33,1.87,1.87,0,0,0-1.54,1.12,5,5,0,0,0,0,2.63q.91,4.23,1.51,9.28c.41,3.37.67,6.68.79,9.95a3.82,3.82,0,0,0,.64,2.32,2,2,0,0,0,1.84.58,2.06,2.06,0,0,0,1.78-.85,5.2,5.2,0,0,0,.28-2.54c-.25-3.71-.58-7.32-1-10.85S657.21,185,656.69,182.51Z"/><path class="cls-1" d="M618.23,202.19a2.91,2.91,0,0,0,1.93-.15c1.13-.36,2.17-.71,3.12-1.06s1.84-.69,2.69-1.06,1.68-.73,2.51-1.12,1.66-.81,2.51-1.29a2.81,2.81,0,0,0,1.45-1.46,2.32,2.32,0,0,0-.18-1.69,1.88,1.88,0,0,0-1.3-1.24,3.2,3.2,0,0,0-2,.51c-.81.45-1.57.85-2.3,1.21s-1.47.71-2.23,1-1.59.64-2.45.94-1.81.62-2.81.94c-1.7.52-2.34,1.51-1.94,3A1.91,1.91,0,0,0,618.23,202.19Z"/><path class="cls-1" d="M635.58,174.41a2.25,2.25,0,0,0,.25,1.87q1.2,2.24,4,.3l.36-.24.36-.24a2.11,2.11,0,0,0-.06.6c0,1.45.83,2.18,2.48,2.18H666.6c1.58,0,2.36-.73,2.36-2.18a2.05,2.05,0,0,0-2.36-2.29H642.78a59.5,59.5,0,0,0,6.14-5.42q2.69-2.75,5.53-6.25c.4-.49.74-.73,1-.73s.62.22,1,.67q2.72,3.07,6.34,6.46t7.8,6.66a5.29,5.29,0,0,0,2.45,1.33c.67.08,1.24-.28,1.73-1.09a2.24,2.24,0,0,0,.42-1.88,4.19,4.19,0,0,0-1.81-2,69.82,69.82,0,0,1-7.5-6,82.69,82.69,0,0,1-7-7.28,4.31,4.31,0,0,0-1.69-1.24,5.13,5.13,0,0,0-1.93-.4,4.92,4.92,0,0,0-1.76.37,4.45,4.45,0,0,0-1.87,1.51q-3.45,4.17-6.84,7.53a43.91,43.91,0,0,1-7.25,5.83A4.75,4.75,0,0,0,635.58,174.41Z"/><path class="cls-1" d="M647.8,192.46c-.29-1.76-.59-3.42-.91-5s-.64-3-1-4.17a4.67,4.67,0,0,0-1-2.21,2.12,2.12,0,0,0-2-.28,1.93,1.93,0,0,0-1.51,1.19,4.75,4.75,0,0,0,.18,2.62c.36,1.42.69,2.92,1,4.51s.58,3.23.84,4.9.51,3.36.73,5.08.39,3.37.51,5a3.83,3.83,0,0,0,.73,2.29,2.1,2.1,0,0,0,1.87.55c.93-.12,1.5-.44,1.73-.94a6,6,0,0,0,.21-2.57c-.16-1.85-.36-3.71-.61-5.56S648.08,194.21,647.8,192.46Z"/><path class="cls-1" d="M637.22,198c.12-1.65.22-3.33.3-5s.14-3.25.18-4.66q.12-4.59-3.57-4.83l2.12-17.42a15,15,0,0,0,.09-3.35,3.89,3.89,0,0,0-.76-2.06,3,3,0,0,0-1.63-1,10.18,10.18,0,0,0-2.54-.27H620.59a2.73,2.73,0,0,0-1.94.54,2.34,2.34,0,0,0-.54,1.7,2.41,2.41,0,0,0,.54,1.75,2.73,2.73,0,0,0,1.94.54h10.46c.8,0,1.15.41,1,1.21l-2.18,18.32h-5c-.44,0-.72-.06-.85-.21a.88.88,0,0,1-.12-.69l1.27-14.69a3.26,3.26,0,0,0-.3-2,2.14,2.14,0,0,0-1.63-.76,1.87,1.87,0,0,0-1.73.52,3.87,3.87,0,0,0-.63,2.08l-1.21,14.28a15.1,15.1,0,0,0-.09,2.78,3.93,3.93,0,0,0,.54,1.84,2.55,2.55,0,0,0,1.37,1,8.08,8.08,0,0,0,2.47.3h8.29a1.44,1.44,0,0,1,.87.18,1.06,1.06,0,0,1,.22.79q0,2.12-.09,4.47c-.07,1.57-.16,3.12-.28,4.63s-.26,2.95-.42,4.32-.32,2.56-.48,3.57a5.8,5.8,0,0,1-.76,2,1.82,1.82,0,0,1-1.6.64,9.16,9.16,0,0,1-2.09-.3c-.82-.2-1.76-.47-2.81-.79-1.45-.48-2.38,0-2.78,1.33a3.06,3.06,0,0,0,.06,2,3,3,0,0,0,1.75,1.18,32.51,32.51,0,0,0,3.51,1,14.17,14.17,0,0,0,2.66.33,5.72,5.72,0,0,0,4.23-1.52c1-1,1.7-2.78,2.06-5.32.12-1,.26-2.24.42-3.71S637.09,199.64,637.22,198Z"/><path class="cls-1" d="M674.8,211.84a2.48,2.48,0,0,0,.51-1.64,2.45,2.45,0,0,0-.51-1.63,2.18,2.18,0,0,0-1.73-.6h-8.4c1.29-3.92,2.42-7.87,3.38-11.89s1.78-7.89,2.42-11.64a5.85,5.85,0,0,0,0-2.9c-.22-.52-.79-.84-1.72-1a1.94,1.94,0,0,0-1.94.55,6,6,0,0,0-.84,2.48c-.32,1.93-.69,3.94-1.09,6s-.86,4.16-1.36,6.23-1,4.14-1.63,6.2-1.2,4-1.85,5.93h-21.4a2.18,2.18,0,0,0-1.73.6,2.45,2.45,0,0,0-.51,1.63,2.48,2.48,0,0,0,.51,1.64,2.18,2.18,0,0,0,1.73.6h34.4A2.18,2.18,0,0,0,674.8,211.84Z"/><path class="cls-1" d="M685.16,175.86c1.58,0,2.36-.85,2.36-2.54v-5a1.85,1.85,0,0,1,.37-1.18,1.17,1.17,0,0,1,1-.45H730.7c1.49,0,2.23.64,2.23,1.93a6.11,6.11,0,0,1-.24,1.69,25.88,25.88,0,0,1-1,2.6,3.62,3.62,0,0,0-.46,2.45,2.25,2.25,0,0,0,1.36,1.36c1.49.69,2.64,0,3.45-2a16.93,16.93,0,0,0,1-3.33,16.22,16.22,0,0,0,.24-2.78q0-6.4-6.65-6.41H712.2c-.33-.85-.64-1.64-.94-2.39s-.56-1.32-.76-1.72a4.52,4.52,0,0,0-1.36-1.66,2,2,0,0,0-1.9.09,2.62,2.62,0,0,0-1.45,1.27,2.11,2.11,0,0,0,.36,2.11,11.69,11.69,0,0,1,.57,1.06l.58,1.24H688.91c-2.13,0-3.67.47-4.62,1.39s-1.42,2.58-1.42,5v4.9a2.5,2.5,0,0,0,.57,1.87A2.39,2.39,0,0,0,685.16,175.86Z"/><path class="cls-1" d="M737.41,212.68a1.88,1.88,0,0,0,.72-1.69c0-1.53-.88-2.3-2.65-2.3H712.14v-7.8h18.92a3.51,3.51,0,0,0,1.91-.48,1.88,1.88,0,0,0,.75-1.7,2.12,2.12,0,0,0-.72-1.66,2.87,2.87,0,0,0-1.94-.63H712.14v-4.9a2.55,2.55,0,0,0-.67-1.91,2.36,2.36,0,0,0-1.69-.63c-1.54,0-2.3.84-2.3,2.54v4.9H688.61a2.78,2.78,0,0,0-2,.63,2.19,2.19,0,0,0-.67,1.66,1.86,1.86,0,0,0,.76,1.7,3.6,3.6,0,0,0,2,.48h18.81v7.8h-23c-1.69,0-2.54.77-2.54,2.3a1.89,1.89,0,0,0,.7,1.69,3.27,3.27,0,0,0,1.9.49h51A3.45,3.45,0,0,0,737.41,212.68Z"/><path class="cls-1" d="M689.94,183.05a4.72,4.72,0,0,0-1.66,1.48,3.18,3.18,0,0,0-.57,1.73,2.53,2.53,0,0,0,1.39,2.15,7.94,7.94,0,0,0,4.41.75l33.8-1.33c.41.44.81.93,1.21,1.45s.83,1.07,1.27,1.63a4,4,0,0,0,2.09,1.61,2.34,2.34,0,0,0,1.84-.34,2.52,2.52,0,0,0,1.06-1.72,3.36,3.36,0,0,0-1-2.27c-.8-.92-1.57-1.82-2.3-2.69s-1.46-1.72-2.2-2.57-1.52-1.69-2.33-2.54-1.72-1.75-2.72-2.72a3.9,3.9,0,0,0-2.18-1.3,2.27,2.27,0,0,0-1.81.7,2.06,2.06,0,0,0-.76,1.63,2.72,2.72,0,0,0,.94,1.81c.6.61,1.18,1.17,1.72,1.7s1,1,1.48,1.51l-26.18.79c-1.13.08-1.19-.25-.18-1q2.29-1.57,4.68-3.36c1.6-1.19,3.34-2.59,5.24-4.2H728c1.65,0,2.48-.71,2.48-2.12a2.38,2.38,0,0,0-.67-1.75,2.54,2.54,0,0,0-1.87-.67H691.64a2.71,2.71,0,0,0-2,.67,2.45,2.45,0,0,0-.64,1.75,1.79,1.79,0,0,0,.79,1.64,3.77,3.77,0,0,0,2,.48h8.46q-2.54,2-5.08,3.78A60.52,60.52,0,0,1,689.94,183.05Z"/><path class="cls-1" d="M131.26,121.33c9,10.18-5.18,20.7-13.85,11.35-8.35-9-17.53-10.85-27.88-10.85-21.2,0-35.22,14.69-35.22,36.55,0,23.54,14.36,39.06,36.05,39.06,10.52,0,21.87-6,28.21-13.69,9-10.84,23.37-1.33,15.19,10-9.18,12.85-27.37,20.7-43.73,20.7-32.88,0-54.91-22.37-54.91-56.09,0-32.21,23.7-53.58,54.58-53.58C106.05,104.8,120.41,109.14,131.26,121.33Z"/><path class="cls-1" d="M208.23,214.47c-32.71,0-54.75-21.87-54.75-54.75s22-54.92,54.75-54.92c32.55,0,54.25,22,54.25,54.92S240.78,214.47,208.23,214.47ZM243,159.72c0-22.7-13.86-37.89-34.72-37.89-21,0-35,15.19-35,37.89,0,22.53,14,37.72,35,37.72C229.09,197.44,243,182.25,243,159.72Z"/><path class="cls-1" d="M179.41,244.33l33.14,51.85,33-52a10,10,0,0,1,8.4-4.6,8.57,8.57,0,0,1,8.88,8.88v83.88c0,5.55-4.92,8.25-9.36,8.25-4.6,0-9-2.7-9-8.25V278.9L220.8,315.84a9.24,9.24,0,0,1-8.25,4.6,10.19,10.19,0,0,1-8.56-5.07l-23.31-36.32v53.28c0,5.55-4.76,8.25-9.2,8.25-4.6,0-9.19-2.7-9.19-8.25V248.61a8.93,8.93,0,0,1,9-9A9.84,9.84,0,0,1,179.41,244.33Z"/><path class="cls-1" d="M340.57,378.63c9,10.18-5.18,20.7-13.86,11.35-8.34-9-17.53-10.85-27.87-10.85-21.2,0-35.22,14.69-35.22,36.56,0,23.53,14.35,39.06,36.05,39.06,10.52,0,21.87-6,28.21-13.69,9-10.85,23.37-1.34,15.19,10-9.18,12.86-27.38,20.7-43.73,20.7-32.89,0-54.92-22.36-54.92-56.08,0-32.22,23.7-53.58,54.58-53.58C315.36,362.11,329.71,366.45,340.57,378.63Z"/><path class="cls-1" d="M368.43,434.38c4.34,0,8.34,2.17,9.18,6.51,3.67,10.85,19,13.35,30.21,13.35,11.68,0,30-3,30-16.19,0-10.51-15.19-11.85-30-13-22.7-1.84-48.57-5-48.57-30.39,0-22.86,26-32.54,46.9-32.54,17.36,0,39.56,5,47.4,23.37,1.84,6.17-3.84,10.85-9.51,10.85-3.67,0-7.18-1.68-8.52-4.68-4-10.35-19-11.68-29.21-11.68-9,0-27,3.17-27,14.85,0,10.85,14,12.19,30.37,13.36,23.21,2.17,48.24,3.17,48.24,29.71s-29.21,33.88-50.07,33.88c-17.36,0-43.9-6-49.58-26.87C356.58,438.39,362.58,434.38,368.43,434.38Z"/><rect class="cls-2" x="193.9" y="381.81" width="18.57" height="70.27" rx="9.28"/><path class="cls-3" d="M182.46,392.42V371.53a9.31,9.31,0,0,0-9.28-9.28h0a9.3,9.3,0,0,0-9.27,9.28v20.89a9.31,9.31,0,0,0,7.55,9.11,9.3,9.3,0,0,0-7.55,9.11v51.7a9.28,9.28,0,1,0,18.56,0v-51.7a9.31,9.31,0,0,0-7.55-9.11A9.32,9.32,0,0,0,182.46,392.42Z"/></g></svg>